<?xml version="1.0" encoding="UTF-8" standalone="no"?>
<svg
   xmlns:dc="http://purl.org/dc/elements/1.1/"
   xmlns:cc="http://creativecommons.org/ns#"
   xmlns:rdf="http://www.w3.org/1999/02/22-rdf-syntax-ns#"
   xmlns:svg="http://www.w3.org/2000/svg"
   xmlns="http://www.w3.org/2000/svg"
   xmlns:sodipodi="http://sodipodi.sourceforge.net/DTD/sodipodi-0.dtd"
   xmlns:inkscape="http://www.inkscape.org/namespaces/inkscape"
   width="500"
   viewBox="0 0 500 500"
   height="500"
   id="svg2"
   version="1.1"
   inkscape:version="0.48.4 r9939"
   sodipodi:docname="timeline.svg"
   inkscape:export-filename="/home/cth451/Documents/git/WeCase-icon/themepacks/gnome/numix/timeline.png"
   inkscape:export-xdpi="90"
   inkscape:export-ydpi="90">
  <title
     id="title2987">Timeline icon</title>
  <metadata
     id="metadata14">
    <rdf:RDF>
      <cc:Work
         rdf:about="">
        <dc:format>image/svg+xml</dc:format>
        <dc:type
           rdf:resource="http://purl.org/dc/dcmitype/StillImage" />
        <dc:title>Timeline icon</dc:title>
        <dc:creator>
          <cc:Agent>
            <dc:title>cthbleachbit@WeCase</dc:title>
          </cc:Agent>
        </dc:creator>
        <dc:description>Timeline Icon for gnome / unity theme &quot;Numix&quot;</dc:description>
      </cc:Work>
    </rdf:RDF>
  </metadata>
  <defs
     id="defs12" />
  <sodipodi:namedview
     pagecolor="#ffffff"
     bordercolor="#666666"
     borderopacity="1"
     objecttolerance="10"
     gridtolerance="10"
     guidetolerance="10"
     inkscape:pageopacity="0"
     inkscape:pageshadow="2"
     inkscape:window-width="1600"
     inkscape:window-height="876"
     id="namedview10"
     showgrid="true"
     inkscape:zoom="1.3037281"
     inkscape:cx="-71.309065"
     inkscape:cy="267.96317"
     inkscape:window-x="0"
     inkscape:window-y="24"
     inkscape:window-maximized="1"
     inkscape:current-layer="svg2"
     showborder="true"
     inkscape:showpageshadow="false">
    <inkscape:grid
       type="xygrid"
       id="grid3752"
       empspacing="5"
       visible="true"
       enabled="true"
       snapvisiblegridlinesonly="true" />
  </sodipodi:namedview>
  <path
     inkscape:connector-curvature="0"
     id="path8"
     d="M 234.23203,127.99996 C 96.922236,219.19782 99.837276,212.83547 99.841116,239.89082 c 0.003,19.69984 -5.3034,15.38959 49.463324,15.82306 l 0,99.85991 c 0,24.96498 0,24.96498 24.96498,24.96498 l 24.96498,0 c 24.96498,0 24.96498,0 24.96498,-24.96498 l 0,-74.89494 c 24.88721,0 25.04275,0 49.92996,0 l 0,74.89494 c 0,24.96498 0,24.96498 24.96497,24.96498 l 24.96498,0 c 24.96498,0 24.96498,0 24.96498,-24.96498 l 0,-99.85991 c 57.80096,0 50.73592,3.87751 51.19718,-13.65573 0.71373,-27.12979 2.72252,-22.79841 -136.99171,-114.92512 -12.39464,-8.27687 -16.16942,-8.24918 -28.99771,0.86693 z"
     style="line-height:normal;color:#000000;fill:#3c3c3c;fill-opacity:1"
     sodipodi:nodetypes="cscssssccsssscscc"
     inkscape:export-xdpi="90"
     inkscape:export-ydpi="90" />
</svg>
